<?xml version="1.0" encoding="UTF-8"?>
<svg width="630px" height="280px" viewBox="0 0 630 280" version="1.1" xmlns="http://www.w3.org/2000/svg" xmlns:xlink="http://www.w3.org/1999/xlink" style="background: #FFFFFF;">
    <!-- Generator: Sketch 48.2 (47327) - http://www.bohemiancoding.com/sketch -->
    <title>chitown</title>
    <desc>Created with Sketch.</desc>
    <defs></defs>
    <g id="Symbols" stroke="none" stroke-width="1" fill="none" fill-rule="evenodd">
        <g id="chitown">
            <rect id="Rectangle" fill="#69BEF9" x="0" y="200" width="630" height="80"></rect>
            <rect id="Rectangle-2" fill="#69BEF9" x="0" y="0" width="630" height="80"></rect>
            <polygon id="Star" fill="#E00C0C" transform="translate(375.105118, 140.105118) rotate(30.000000) translate(-375.105118, -140.105118) " points="375.105118 155.505118 353.105118 178.210236 361.768327 147.805118 331.105118 140.105118 361.768327 132.405118 353.105118 102 375.105118 124.705118 397.105118 102 388.441909 132.405118 419.105118 140.105118 388.441909 147.805118 397.105118 178.210236"></polygon>
            <polygon id="Star-Copy-3" fill="#E00C0C" transform="translate(135.105118, 140.105118) rotate(30.000000) translate(-135.105118, -140.105118) " points="135.105118 155.505118 113.105118 178.210236 121.768327 147.805118 91.1051178 140.105118 121.768327 132.405118 113.105118 102 135.105118 124.705118 157.105118 102 148.441909 132.405118 179.105118 140.105118 148.441909 147.805118 157.105118 178.210236"></polygon>
            <polygon id="Star-Copy" fill="#E00C0C" transform="translate(495.105118, 140.105118) rotate(30.000000) translate(-495.105118, -140.105118) " points="495.105118 155.505118 473.105118 178.210236 481.768327 147.805118 451.105118 140.105118 481.768327 132.405118 473.105118 102 495.105118 124.705118 517.105118 102 508.441909 132.405118 539.105118 140.105118 508.441909 147.805118 517.105118 178.210236"></polygon>
            <polygon id="Star-Copy-2" fill="#E00C0C" transform="translate(255.105118, 140.105118) rotate(30.000000) translate(-255.105118, -140.105118) " points="255.105118 155.505118 233.105118 178.210236 241.768327 147.805118 211.105118 140.105118 241.768327 132.405118 233.105118 102 255.105118 124.705118 277.105118 102 268.441909 132.405118 299.105118 140.105118 268.441909 147.805118 277.105118 178.210236"></polygon>
        </g>
    </g>
</svg>