<?xml version="1.0" encoding="UTF-8"?>
<svg width="316px" height="395px" viewBox="0 0 316 395" version="1.1" xmlns="http://www.w3.org/2000/svg" xmlns:xlink="http://www.w3.org/1999/xlink">
    <!-- Generator: Sketch 48.2 (47327) - http://www.bohemiancoding.com/sketch -->
    <title>resume_icon</title>
    <desc>Created with Sketch.</desc>
    <defs></defs>
    <g id="Desktop-HD---Work" stroke="none" stroke-width="1" fill="none" fill-rule="evenodd" transform="translate(-517.000000, -544.000000)">
        <g id="resume_icon" transform="translate(521.000000, 544.000000)">
            <g>
                <path d="M75,3 C35.235498,3 3,35.235498 3,75 L3,387 C3,389.761424 5.23857625,392 8,392 L304,392 C306.761424,392 309,389.761424 309,387 L309,8 C309,5.23857625 306.761424,3 304,3 L75,3 Z" id="Rectangle-5" stroke="#000000" stroke-width="6"></path>
                <ellipse id="Oval" stroke="#000000" stroke-width="6" cx="155.53012" cy="87.9345238" rx="23.0240964" ry="23.0416667"></ellipse>
                <path d="M134.135291,131.845238 C121.210714,131.845238 110.098788,141.004521 107.631734,153.691457 L103.597352,174.438453 C103.536204,174.752908 103.505418,175.072512 103.505418,175.392857 C103.505418,178.154281 105.743994,180.392857 108.505418,180.392857 L204.430786,180.392857 C204.738569,180.392857 205.045695,180.364438 205.348252,180.307962 C208.06279,179.801259 209.852594,177.189928 209.345891,174.475391 L205.503541,153.890921 C203.117938,141.110628 191.963012,131.845238 178.961974,131.845238 L134.135291,131.845238 Z" id="Rectangle-6" stroke="#070707" stroke-width="6"></path>
                <rect id="Rectangle-7" fill="#000000" x="38.5301205" y="216.309524" width="236.819277" height="13.1666667" rx="6.58333333"></rect>
                <rect id="Rectangle-7-Copy" fill="#000000" x="38.5301205" y="243.583333" width="236.819277" height="13.1666667" rx="6.58333333"></rect>
                <rect id="Rectangle-7-Copy-2" fill="#000000" x="38.5301205" y="271.797619" width="236.819277" height="13.1666667" rx="6.58333333"></rect>
                <rect id="Rectangle-7-Copy-3" fill="#000000" x="38.5301205" y="301.892857" width="236.819277" height="13.1666667" rx="6.58333333"></rect>
                <path d="M59.2048193,8.46428571 C57.3253012,15.7406015 56.3855422,23.4211571 56.3855422,31.5059524 C56.3855422,39.5907477 57.3253012,47.2713033 59.2048193,54.547619" id="Line" stroke="#000000" stroke-width="5" stroke-linecap="square"></path>
                <path d="M59.2048193,54.547619 C50.0820641,54.7951128 40.9593089,57.2700501 31.8365538,61.9724311 C22.7137986,66.674812 12.101614,75.485589 0,88.4047619" id="Line-Copy" stroke="#000000" stroke-width="5" stroke-linecap="square"></path>
            </g>
        </g>
    </g>
</svg>