<?xml version="1.0" encoding="UTF-8"?>
<svg width="72px" height="72px" viewBox="0 0 72 72" version="1.1" xmlns="http://www.w3.org/2000/svg" xmlns:xlink="http://www.w3.org/1999/xlink">
    <title>openmoji:texas-flag</title>
    <g id="Desktop-HD" stroke="none" stroke-width="1" fill="none" fill-rule="evenodd">
        <g id="Desktop-HD---About" transform="translate(-565.000000, -116.000000)">
            <g id="openmoji:texas-flag" transform="translate(565.000000, 116.000000)">
                <rect id="ViewBox" x="0" y="0" width="72" height="72"></rect>
                <polygon id="Path" fill="#FFFFFF" fill-rule="nonzero" points="5 17 67 17 67 55 5 55"></polygon>
                <polygon id="Path" fill="#D22F27" fill-rule="nonzero" points="5 36 67 36 67 55 5 55"></polygon>
                <polygon id="Path" fill="#1E50A0" fill-rule="nonzero" points="6 17 25.67 17 25.67 55 6 55"></polygon>
                <polygon id="Path" stroke="#FFFFFF" stroke-width="1.629" fill="#FFFFFF" stroke-linecap="round" stroke-linejoin="round" points="19.68 41.31 15.826 38.754 11.967 41.303 13.207 36.848 9.59 33.966 14.21 33.768 15.834 29.438 17.45 33.771 22.07 33.977 18.448 36.853"></polygon>
                <polygon id="Path" stroke="#000000" stroke-width="2" stroke-linecap="round" stroke-linejoin="round" points="5 17 67 17 67 55 5 55"></polygon>
            </g>
        </g>
    </g>
</svg>